HIERARCHY
ROOT pelvis
{
  OFFSET 0 100 0
  CHANNELS 6 Xposition Yposition Zposition Zrotation Xrotation Yrotation
  JOINT pelvis_right_femur
  {
    OFFSET -10.78128 -3.44521 -0.5502486
    CHANNELS 3 Zrotation Xrotation Yrotation
    JOINT right_femur_tibia
    {
      OFFSET -0.8047443 -44.0398 -0.1307829
      CHANNELS 3 Zrotation Xrotation Yrotation
      JOINT right_tibia_foot
      {
        OFFSET 3.006224 -47.83518 -5
        CHANNELS 3 Zrotation Xrotation Yrotation
        End Site
        {
          OFFSET 0 -5 15
        }
      }
    }
  }
  JOINT pelvis_left_femur
  {
    OFFSET 10.78128 -3.44521 -0.5502486
    CHANNELS 3 Zrotation Xrotation Yrotation
    JOINT left_femur_tibia
    {
      OFFSET 0.8047443 -44.0398 -0.1307829
      CHANNELS 3 Zrotation Xrotation Yrotation
      JOINT left_tibia_foot
      {
        OFFSET -4.370144 -48.10324 -4.275266
        CHANNELS 3 Zrotation Xrotation Yrotation
        End Site
        {
          OFFSET 0 -5 15
        }
      }
    }
  }
  JOINT pelvis_spine1
  {
    OFFSET 0 6.468898 -3.129235
    CHANNELS 3 Zrotation Xrotation Yrotation
    JOINT spine1
    {
      OFFSET 0 23.15396 4.99043
      CHANNELS 3 Zrotation Xrotation Yrotation
      JOINT spine2
      {
        OFFSET 0 20.79997 -5.064912
        CHANNELS 3 Zrotation Xrotation Yrotation
        JOINT neck
        {
          OFFSET 0 14.38658 9.616178
          CHANNELS 3 Zrotation Xrotation Yrotation
          End Site
          {
            OFFSET 0 20 0
          }
        }
      }
      JOINT right_manubrium
      {
        OFFSET -5.722621 16.35077 3.967754
        CHANNELS 3 Zrotation Xrotation Yrotation
        JOINT right_clavicle
        {
          OFFSET -13.16364 1.694482 -4.693211
          CHANNELS 3 Zrotation Xrotation Yrotation
          JOINT right_humerus
          {
            OFFSET -28.5034 -0.3100689 -2.792744
            CHANNELS 3 Zrotation Xrotation Yrotation
            JOINT right_radius
            {
              OFFSET -25.15693 0.02248979 -1.271978
              CHANNELS 3 Zrotation Xrotation Yrotation
              End Site
              {
                OFFSET -15 0 0
              }
            }
          }
        }
      }
      JOINT left_manubrium
      {
        OFFSET 5.722621 16.35077 3.967754
        CHANNELS 3 Zrotation Xrotation Yrotation
        JOINT left_clavicle
        {
          OFFSET 13.16364 1.694482 -4.693211
          CHANNELS 3 Zrotation Xrotation Yrotation
          JOINT left_humerus
          {
            OFFSET 29.39168 -1.063119 -2.237045
            CHANNELS 3 Zrotation Xrotation Yrotation
            JOINT left_radius
            {
              OFFSET 24.59957 -0.9528479 0.9047498
              CHANNELS 3 Zrotation Xrotation Yrotation
              End Site
              {
                OFFSET 15 -0 -0
              }
            }
          }
        }
      }
    }
  }
}
MOTION
Frames: 11
Frame Time: 0.0416666666667
0 103.5113 0 4.523456 -3.734661 0.509297 -2.002222 -0.3447559 3.858268 -0 27.67065 -0 -2.796646 -21.05316 -2.238588 -9.054078 12.93694 -24.70857 -0 5.680495 -0 3.694986 -16.53391 22.25897 -8.074286 -4.579242 2.384808 4.54513 8.372259 -8.041227 -0.6222003 24.88303 7.650295 2.179423 -21.09875 8.033949 6.367684 -17.8385 12.67672 85.68801 34.95111 -20.56049 -0 0 12.91189 -11.27401 6.871161 9.309585 1.359763 -16.55261 -3.361878 -94.89312 37.07929 21.95665 0 0 -17.73293 -10.91759 13.23345 22.43196
0.3192982 103.4644 1.293871 3.846155 -3.872346 0.7011184 -1.067596 -4.075755 4.023846 -0 34.4241 -0 -3.374244 -19.95597 -4.036257 -8.404662 14.03058 -24.42464 -0 5.441203 -0 3.471668 -17.24549 21.73248 -7.516419 -3.937983 1.833009 4.580808 8.25771 -8.221908 -0.600468 24.81862 7.589456 2.118409 -21.67856 8.041425 6.334811 -17.82194 12.51426 85.65103 34.82662 -20.65594 -0 0 12.73647 -11.27318 6.997426 9.341394 1.309854 -16.43108 -3.546347 -95.01256 36.91878 22.36268 0 0 -17.3108 -10.8152 13.39051 22.63813
0.5556953 103.5022 2.678425 2.920194 -3.89794 0.8200876 0.2031997 -8.448452 4.123309 -0 39.4092 -0 -4.16608 -18.92408 -5.368923 -7.502689 14.99606 -24.06492 -0 5.350666 -0 3.188884 -17.98975 21.22204 -6.906602 -3.132959 1.189761 4.777886 8.072318 -8.529045 -0.553077 24.70399 7.566289 2.120559 -22.30536 8.067364 6.43076 -17.9559 12.37211 85.44467 34.69846 -20.57317 -0 0 12.62566 -11.29506 7.122688 9.385998 1.242065 -16.37695 -3.811445 -95.00266 36.74092 22.61682 0 0 -16.95922 -10.72027 13.46711 22.73875
0.70639 103.5371 4.172795 1.955882 -3.732425 0.7707164 1.434417 -13.24958 4.054431 -0 41.56237 -0 -4.979757 -17.50641 -6.182136 -6.598214 15.73274 -23.55942 -0 5.456638 -0 2.866285 -18.82294 20.69292 -6.227866 -2.246206 0.7743769 4.946228 7.82835 -8.64706 -0.4540735 24.49879 7.556895 2.193065 -23.01526 8.109397 6.421049 -17.95966 12.29863 85.27966 34.53956 -20.44259 -0 0 12.58564 -11.3294 7.250422 9.449016 1.266266 -16.45905 -3.939595 -94.79045 36.50553 22.52961 0 0 -16.79389 -10.51503 13.52175 22.74608
0.8188935 103.4255 5.877011 1.053062 -3.359007 0.4663137 2.419353 -18.18356 4.002603 -0 40.68791 -0 -5.67291 -15.42073 -6.319817 -5.845307 16.29294 -22.8842 -0 5.796441 -0 2.520584 -19.8029 20.10888 -5.578245 -1.319207 0.4621649 5.184424 7.534742 -8.741869 -0.2210129 24.17457 7.496556 2.322314 -23.75057 8.209099 6.330244 -17.94613 12.22338 85.11093 34.37367 -20.25849 -0 0 12.53415 -11.3716 7.383166 9.508563 1.379185 -16.57309 -4.028249 -94.43677 36.20989 22.16666 0 0 -16.87939 -10.21442 13.56279 22.62903
0.845978 103.1303 7.718854 0.1561579 -2.733925 0.2994731 3.012659 -22.8258 4.317424 -0 37.56713 -0 -6.269406 -12.61452 -5.534553 -5.05538 16.59384 -22.1232 -0 6.324518 -0 2.157373 -20.97723 19.39308 -4.988169 -0.4331949 0.2813114 5.444498 7.235462 -8.763025 0.07734408 23.75633 7.401236 2.50337 -24.52855 8.299699 6.233411 -17.86397 12.15319 85.00473 34.20747 -20.08948 -0 0 12.3701 -11.4023 7.534147 9.526754 1.579397 -16.73402 -4.077208 -93.91886 35.83756 21.58405 0 0 -17.21257 -9.817069 13.58199 22.37857
0.757385 102.5332 9.777434 -0.3061939 -1.795266 -0.03873008 3.646377 -27.08745 3.961546 -0 31.81841 -0 -6.375734 -9.566717 -4.66941 -4.684385 16.76401 -21.12454 -0 6.91406 -0 1.71168 -22.25132 18.46714 -4.719559 0.1474127 0.3189626 5.541391 6.83407 -8.658221 0.3146082 23.35371 7.354982 2.673037 -25.23931 8.387302 6.000574 -17.68017 12.03198 85.13027 34.02551 -19.95994 -0 0 12.17326 -11.42369 7.705043 9.547567 2.059289 -16.97596 -4.063242 -93.19446 35.42096 20.69515 0 0 -17.93008 -9.255279 13.68523 22.07369
0.8150426 101.8227 12.21743 -0.5897937 -0.6530945 -0.3319498 3.902078 -30.66862 3.344306 -0 25.22353 -0 -6.308116 -6.73663 -3.798889 -4.561909 16.86335 -19.95448 -0 7.687185 -0 1.05548 -23.4204 17.27929 -4.446471 0.6318267 0.293427 5.569923 6.547077 -8.636271 0.5656506 23.04302 7.324649 2.87385 -25.86478 8.499265 5.673164 -17.46619 11.92217 85.2505 33.85002 -19.84965 -0 0 11.90076 -11.43147 7.905349 9.548719 2.507098 -17.13998 -4.20811 -92.5341 34.97516 19.87403 0 0 -18.64453 -8.727535 13.70918 21.69694
0.7536659 100.9106 15.31497 -0.7237675 0.3660049 -0.4270205 4.428287 -33.18349 2.703137 -0 19.26732 -0 -6.182653 -4.842022 -3.141555 -4.583165 17.09466 -18.8264 -0 9.0974 -0 0.1059091 -24.30814 15.77937 -4.222604 0.7969764 0.2591761 5.475147 6.235969 -8.655749 0.7282555 22.72496 7.250657 3.037498 -26.43343 8.435265 5.414238 -17.00396 11.77999 85.61112 33.64753 -19.99235 -0 0 11.47728 -11.39125 8.150397 9.510933 2.797601 -17.15555 -4.322168 -91.9785 34.46673 19.29642 0 0 -19.04807 -8.230324 13.64821 21.35117
0.6441882 100.1523 18.85776 -0.8471203 1.261863 -0.04275163 4.979189 -34.59851 2.120583 -0 15.58392 -0 -6.289478 -3.540851 -2.807901 -4.34477 17.35516 -17.64422 -0 11.15588 -0 -1.300667 -24.49871 13.81489 -3.89112 0.9607656 0.1637004 5.27635 5.924913 -8.708972 0.8592572 22.49052 7.120073 3.174442 -26.92807 8.261018 5.265331 -16.45888 11.59816 86.03459 33.44408 -20.2945 -0 0 10.92658 -11.34133 8.432857 9.457099 2.765763 -17.09903 -4.310226 -91.4712 33.85757 18.99077 0 0 -19.10113 -7.714026 13.50764 21.02314
0.5148458 99.70375 23.31864 -1.022145 2.249603 0.5604402 5.308901 -34.29225 1.591865 -0 14.73027 -0 -6.725938 -2.798004 -2.98769 -3.726035 17.38416 -16.37656 -0 14.21021 -0 -3.150146 -23.59657 11.49176 -3.186625 0.8088717 -0.1524317 5.12196 5.403609 -8.963289 0.7527834 22.22532 7.061103 3.161777 -27.43809 7.977097 5.180643 -15.6876 11.39366 86.5595 33.24513 -20.86912 -0 0 10.12002 -11.26176 8.765177 9.329409 2.540093 -17.00338 -4.369152 -91.11238 33.24146 18.85802 0 0 -18.90517 -7.186305 13.37401 20.80261
